<svg id="Layer_1" data-name="Layer 1" xmlns="http://www.w3.org/2000/svg" viewBox="3 0 683.5099487304688 216.72000122070312"><defs><style>.cls-1{fill:#0f7a98;}.cls-2,.cls-4{fill:#41a4ca;}.cls-3{fill:#f1d687;}.cls-4{stroke:#f1d687;stroke-miterlimit:10;stroke-width:4px;}.cls-5{fill:#fff;}.cls-6{fill:none;stroke:#41a4ca;stroke-linecap:round;stroke-linejoin:round;stroke-width:6px;}</style></defs><title>shoutbox logo</title><polygon class="cls-1" points="195.42 162.55 164.75 180.26 165.03 180.04 164.6 180.32 101.61 216.72 101.61 108.39 195.42 54.16 195.42 162.55"></polygon><polygon class="cls-1" points="195.42 162.55 164.75 180.26 165.03 180.04 164.6 180.32 101.61 216.72 101.61 108.39 195.42 54.16 195.42 162.55"></polygon><polygon class="cls-1" points="195.42 162.55 164.75 180.26 165.03 180.04 164.6 180.32 101.61 216.72 101.61 108.39 195.42 54.16 195.42 162.55"></polygon><polygon class="cls-1" points="195.42 162.55 164.75 180.26 165.03 180.04 164.6 180.32 101.61 216.72 101.61 108.39 195.42 54.16 195.42 162.55"></polygon><polygon class="cls-2" points="101.61 108.39 7.92 53.99 101.74 0 195.42 54.16 101.61 108.39"></polygon><polygon class="cls-3" points="7.79 162.55 101.61 216.72 101.61 108.39 7.79 54.16 7.79 162.55"></polygon><polygon class="cls-1" points="195.41 154.12 195.41 205.76 161.2 187.55 195.41 154.12"></polygon><path class="cls-4" d="M329.55,358a1.1,1.1,0,0,1,.34-.81l.09-.09a1.28,1.28,0,0,1,.64-.17,1.85,1.85,0,0,1,1.28.81,21.5,21.5,0,0,0,8,6.25,27.71,27.71,0,0,0,11.45,2.11,32.25,32.25,0,0,0,10.31-1.53,15.4,15.4,0,0,0,7.25-4.93,13.5,13.5,0,0,0,2.7-8.68,9.12,9.12,0,0,0-3.13-7.27,19.09,19.09,0,0,0-7.06-3.9q-3.93-1.2-10-2.39a52.93,52.93,0,0,1-11.54-3.24,16.62,16.62,0,0,1-6.76-4.93,11.53,11.53,0,0,1-2.26-7.23,14.16,14.16,0,0,1,2.63-8.61,16,16,0,0,1,7.46-5.44,31.88,31.88,0,0,1,11.45-1.86,29.36,29.36,0,0,1,10.13,1.58,23.62,23.62,0,0,1,8.21,5.37,1.27,1.27,0,0,1,.38.94,1.25,1.25,0,0,1-.25.77l-.09.09a1.32,1.32,0,0,1-.72.21,1.26,1.26,0,0,1-.68-.21,6.72,6.72,0,0,1-.81-.64,31.55,31.55,0,0,0-4.65-3.37,16.47,16.47,0,0,0-4.8-1.77,32.6,32.6,0,0,0-6.72-.58,31.81,31.81,0,0,0-9.32,1.32,15.8,15.8,0,0,0-7.1,4.33,11.15,11.15,0,0,0-2.77,7.87,9.48,9.48,0,0,0,5.09,8.6A43,43,0,0,0,352,335.2,103.2,103.2,0,0,1,363.12,338a19.33,19.33,0,0,1,7.57,4.52,11.2,11.2,0,0,1,3.26,8.46,15.78,15.78,0,0,1-2.94,9.73,17.53,17.53,0,0,1-8.06,5.84,32.91,32.91,0,0,1-11.61,1.92,30.87,30.87,0,0,1-12-2.15,24.32,24.32,0,0,1-9.28-7.15A1.83,1.83,0,0,1,329.55,358Z" transform="translate(-108.75 -162.98)"></path><path class="cls-4" d="M388.07,338.49v27.76c0,.91-.37,1.37-1.11,1.37h0c-.77,0-1.16-.46-1.16-1.37V308.12c0-.91.39-1.37,1.16-1.37h0c.74,0,1.11.46,1.11,1.37v28.06h44.06V308.12c0-.91.38-1.37,1.15-1.37h0c.74,0,1.11.46,1.11,1.37v58.13c0,.91-.37,1.37-1.11,1.37h0c-.77,0-1.15-.46-1.15-1.37V338.49Z" transform="translate(-108.75 -162.98)"></path><path class="cls-4" d="M449.49,321.58a31.28,31.28,0,0,1,11.4-11.33,30.73,30.73,0,0,1,15.68-4.18,30.22,30.22,0,0,1,15.61,4.18,31.24,31.24,0,0,1,0,53.87,30.38,30.38,0,0,1-15.61,4.14,31.26,31.26,0,0,1-27.11-15.4,31.12,31.12,0,0,1,0-31.28Zm2.13,30.07A28.17,28.17,0,0,0,462.07,362a28.6,28.6,0,0,0,14.5,3.8A28.2,28.2,0,0,0,491,362a27.79,27.79,0,0,0,10.27-10.32A28.34,28.34,0,0,0,505,337.25a28.63,28.63,0,0,0-3.76-14.5A27.77,27.77,0,0,0,491,312.38a28.78,28.78,0,0,0-39.37,39.27Z" transform="translate(-108.75 -162.98)"></path><path class="cls-4" d="M523.51,355.08a22.52,22.52,0,0,0,42-11.35V308.08a1.51,1.51,0,0,1,.3-1,1.06,1.06,0,0,1,.89-.37h0c.73,0,1.1.46,1.1,1.37v36a23.57,23.57,0,0,1-3.34,12.3,24.88,24.88,0,0,1-9,8.9A24.55,24.55,0,0,1,543,368.6a24.3,24.3,0,0,1-12.48-3.33,24.8,24.8,0,0,1-9-9,24.32,24.32,0,0,1-3.35-12.5V308c0-.85.4-1.28,1.2-1.28h0c.74,0,1.11.43,1.11,1.28v35.74A22.08,22.08,0,0,0,523.51,355.08Z" transform="translate(-108.75 -162.98)"></path><path class="cls-4" d="M578,306.75h43.68c.74,0,1.11.39,1.11,1.16v0c0,.8-.37,1.19-1.11,1.19h-20.6v57.28q0,1.2-1.11,1.2h0a1.06,1.06,0,0,1-1.2-1.2V309.14H578A1.05,1.05,0,0,1,576.8,308v0A1,1,0,0,1,578,306.75Z" transform="translate(-108.75 -162.98)"></path><path class="cls-5" d="M632.93,306.75h24.48a15.7,15.7,0,0,1,7.85,2A15.38,15.38,0,0,1,671,314.3a14.74,14.74,0,0,1,2.11,7.77,14.2,14.2,0,0,1-2.3,8,16.35,16.35,0,0,1-6.23,5.55,14.4,14.4,0,0,1,5.85,3.41,18.52,18.52,0,0,1,4.18,5.84,16.56,16.56,0,0,1,1.53,6.91,15.29,15.29,0,0,1-2.05,7.7,16.13,16.13,0,0,1-5.54,5.8,15.13,15.13,0,0,1-7.59,2.37h-28c-.77,0-1.15-.4-1.15-1.2V307.91A1,1,0,0,1,632.93,306.75Zm1.15,28.2h23.33a13.64,13.64,0,0,0,6.7-1.69,13.08,13.08,0,0,0,4.88-4.6,12.16,12.16,0,0,0,1.81-6.55,12.4,12.4,0,0,0-1.81-6.57,13.21,13.21,0,0,0-4.88-4.71,13.46,13.46,0,0,0-6.7-1.73H634.08Zm0,30.32H661a11.22,11.22,0,0,0,7.15-2.26,13.89,13.89,0,0,0,4.26-5.39,14.33,14.33,0,0,0,1.39-5.78,13.63,13.63,0,0,0-2.13-7.51,16,16,0,0,0-5.25-5.18,11.62,11.62,0,0,0-5.93-1.86h-26.4Z" transform="translate(-108.75 -162.98)"></path><path class="cls-5" d="M687.69,321.58a31.38,31.38,0,0,1,11.41-11.33,30.71,30.71,0,0,1,15.68-4.18,30.22,30.22,0,0,1,15.61,4.18,31.25,31.25,0,0,1,0,53.87,30.38,30.38,0,0,1-15.61,4.14,31.26,31.26,0,0,1-27.11-15.4,31.16,31.16,0,0,1,0-31.28Zm2.13,30.07A28.25,28.25,0,0,0,700.27,362a28.63,28.63,0,0,0,14.51,3.8,28.14,28.14,0,0,0,14.41-3.8,27.74,27.74,0,0,0,10.28-10.32,28.43,28.43,0,0,0,3.75-14.42,28.73,28.73,0,0,0-3.75-14.5,27.73,27.73,0,0,0-10.28-10.37,28.13,28.13,0,0,0-14.41-3.79A28.46,28.46,0,0,0,686,337.25,28.06,28.06,0,0,0,689.82,351.65Z" transform="translate(-108.75 -162.98)"></path><path class="cls-5" d="M795,365.79a1.53,1.53,0,0,1,.26.76,1,1,0,0,1-.36.77,1.18,1.18,0,0,1-.75.3h0a1.23,1.23,0,0,1-1.07-.56l-18.89-27.8L755.34,367a1.19,1.19,0,0,1-.94.6,1.41,1.41,0,0,1-.83-.28.94.94,0,0,1-.41-.83,1.56,1.56,0,0,1,.26-.77l19.36-28.57L753.5,308.63a1.25,1.25,0,0,1-.25-.77,1,1,0,0,1,.34-.78,1,1,0,0,1,.72-.33h.05a1.25,1.25,0,0,1,1,.6l18.77,27.77L793,307.27a1.28,1.28,0,0,1,1-.6,1.33,1.33,0,0,1,.83.32,1,1,0,0,1,.41.83,1.35,1.35,0,0,1-.26.73l-19.45,28.62Z" transform="translate(-108.75 -162.98)"></path><ellipse class="cls-1" cx="141.62" cy="272.37" rx="6.25" ry="8.03" transform="translate(-165.47 -124.93) rotate(-12.77)"></ellipse><ellipse class="cls-1" cx="184.16" cy="296.83" rx="6.25" ry="8.03" transform="translate(-169.82 -114.92) rotate(-12.77)"></ellipse><path class="cls-1" d="M177.18,304.92c-1.57,8.21-9.54,26.93-19.55,21.59-10.92-5.83-15.68-20.69-15.45-41.75C153.16,291.31,164.94,297.69,177.18,304.92Z" transform="translate(-108.75 -162.98)"></path><line class="cls-6" x1="23.51" y1="148.64" x2="3" y2="150.36"></line><line class="cls-6" x1="29.88" y1="160.27" x2="4.11" y2="173.71"></line><line class="cls-6" x1="38.07" y1="171.07" x2="27.1" y2="182.83"></line></svg>
